<svg id="icon-gitter" viewBox="0 0 16 16" width="100%" height="100%">
      <title>Gitter</title>
      <path d="M8.6970412,15.9695 C8.4666195,15.99 8.233199,16 7.9972792,16 C7.7613595,16 7.5279389,15.99 7.2975173,15.9695 L7.2975173,3.1825 L5.7480444,3.1825 L5.7480444,15.6785 C2.4276741,14.7055 0,11.634 0,8 C0,5.569 1.0861305,3.39 2.7990477,1.9225 L2.7990477,10.6325 L4.3485206,10.6325 L4.3485206,0.8805 C5.4426483,0.3175 6.6832263,0 7.9972792,0 C12.4112775,0 15.9945584,3.5845 15.9945584,8 C15.9945584,11.634 13.5668844,14.7055 10.246514,15.6785 L10.246514,3.1825 L8.6970412,3.1825 L8.6970412,15.9695 Z M13.2454937,3.1825 L11.6960209,3.1825 L11.6960209,10.5825 L13.2454937,10.5825 L13.2454937,3.1825 Z" id="Shape"></path>
    </svg>